<svg width="58" height="38" viewBox="0 0 58 38" fill="none" xmlns="http://www.w3.org/2000/svg">
<path d="M17.0915 0C19.8825 0 20.4721 0.0376044 21.8978 0.111421C23.541 0.204735 24.6737 0.519499 25.6506 0.98468C26.6739 1.44847 27.5426 2.09889 28.3951 3.11978C29.2638 4.14067 29.7906 5.18106 30.1941 6.40669C30.5813 7.5766 30.8302 8.93175 30.907 10.9192C30.9849 12.6838 31 13.3705 31 17.085V20.0557C31 23.7702 30.9849 24.4568 30.907 26.2214C30.8802 27.844 30.6209 29.383 30.1673 30.8092L30.1929 30.7159C29.7894 31.9415 29.2626 32.9819 28.4102 34.0028C27.5415 35.0432 26.6739 35.6741 25.6506 36.1574C24.6737 36.6212 23.5422 36.9192 21.8978 37.0111C20.4244 37.1045 19.836 37.1226 16.7344 37.1226H14.269C11.1675 37.1226 10.5942 37.1045 9.10568 37.0111C7.75087 36.9791 6.46584 36.6685 5.27501 36.1253L5.35293 36.156C4.27955 35.6643 3.36433 34.9387 2.6096 34.0209L2.60843 34.0195C1.83393 33.1114 1.22223 32.0084 0.826837 30.7758L0.809393 30.7131C0.382601 29.3816 0.12327 27.8412 0.0965224 26.2326V26.2187C0.0348876 24.7674 0 23.0669 0 21.3579C0 21.0432 0.00116267 20.7284 0.00348851 20.415V20.4624V16.656C0.00348851 13.3134 0.0348876 12.6072 0.0965224 10.8997C0.174438 8.93176 0.437258 7.57521 0.809393 6.40529C1.21293 5.17967 1.73973 4.13928 2.60843 3.11838C3.35852 2.18942 4.27606 1.461 5.30292 1.00279L5.35293 0.983287C6.46352 0.466574 7.74855 0.149025 9.09172 0.111421H9.10568C10.5326 0.0376044 11.121 0 13.912 0H17.0915ZM17.1229 3.34262H13.8818C11.1989 3.34262 10.6256 3.38022 9.23011 3.45404C7.72645 3.52785 6.90427 3.82591 6.36118 4.08496C5.63203 4.41922 5.12034 4.8273 4.57842 5.47772C4.0365 6.12813 3.6946 6.74095 3.4155 7.61281C3.21431 8.26323 2.95033 9.24652 2.8887 11.0669C2.82706 12.7382 2.79566 13.4067 2.79566 16.6379V20.5C2.79566 23.7312 2.82706 24.3997 2.8887 26.071C2.95033 27.8719 3.1992 28.8565 3.4155 29.507C3.6946 30.3802 4.03534 30.993 4.57842 31.6421C5.12151 32.2911 5.63319 32.7006 6.36118 33.0348C6.90427 33.2953 7.72529 33.5919 9.24523 33.6657C10.7489 33.7591 11.292 33.7772 14.6412 33.7772H16.3623C19.7266 33.7772 20.2546 33.7591 21.7734 33.6657C23.277 33.5919 24.0992 33.2939 24.6423 33.0348C25.3715 32.7006 25.8831 32.2925 26.4251 31.6421C26.967 30.9916 27.3089 30.3788 27.588 29.507C27.8055 28.8565 28.0532 27.8733 28.1148 26.071C28.1927 24.2507 28.2078 23.6198 28.2078 19.5905V17.5474C28.2078 13.5181 28.1927 12.8677 28.1148 11.0474C28.0532 9.24652 27.8043 8.26184 27.588 7.61142C27.3252 6.77437 26.9286 6.05989 26.4262 5.47772L26.4251 5.47632C25.9366 4.87326 25.3412 4.39833 24.6749 4.0961L24.6423 4.08357C23.791 3.69916 22.8072 3.46936 21.7792 3.45265H21.7734C20.5779 3.38022 19.1789 3.33844 17.7706 3.33844C17.5427 3.33844 17.3147 3.33983 17.0868 3.34123H17.1217L17.1229 3.34262ZM15.5099 9.02507C19.9069 9.02507 23.4724 13.2939 23.4724 18.5613C23.4724 23.8287 19.9081 28.0975 15.5099 28.0975C11.1129 28.0975 7.54736 23.8287 7.54736 18.5613C7.54736 13.2939 11.1117 9.02507 15.5099 9.02507V9.02507ZM15.5099 12.3677C12.6537 12.3677 10.3384 15.1407 10.3384 18.5613C10.3384 21.9819 12.6537 24.7549 15.5099 24.7549C18.366 24.7549 20.6814 21.9819 20.6814 18.5613C20.6814 15.1407 18.366 12.3677 15.5099 12.3677ZM23.7748 6.42479C24.8028 6.42479 25.6354 7.42201 25.6354 8.6532C25.6354 9.8844 24.8028 10.8816 23.7748 10.8816C22.7467 10.8816 21.9141 9.8844 21.9141 8.6532C21.9141 7.42201 22.7467 6.42479 23.7748 6.42479V6.42479Z" fill="white"/>
<path d="M46.04 37.1407L46 20.8914H41V13.9276H46V9.28552C46 3.02786 48.787 0 52.8 0C54.72 0 56.373 0.185237 56.853 0.278552V6.83426H54.066C51.893 6.83426 51.466 8.28273 51.466 10.3997V13.9276H57.666L55.999 20.8914H51.466V37.1407H46.039H46.04Z" fill="white"/>
</svg>
