<svg width="9" height="9" viewBox="0 0 9 9" fill="none" xmlns="http://www.w3.org/2000/svg">
<path d="M4.96204 0C5.77233 0 5.9435 0.00844757 6.35743 0.0250299C6.83449 0.0459924 7.16333 0.116702 7.44694 0.221202C7.74404 0.325389 7.99625 0.471501 8.24373 0.700837C8.49593 0.930173 8.64887 1.16389 8.76603 1.43922C8.87846 1.70203 8.95071 2.00646 8.97299 2.45293C8.99561 2.84934 9 3.00359 9 3.83802V4.50538C9 5.33982 8.99561 5.49406 8.97299 5.89047C8.96523 6.25497 8.88994 6.6007 8.75826 6.92108L8.76569 6.90012C8.64854 7.17545 8.49559 7.40916 8.24812 7.6385C7.99591 7.87221 7.74404 8.01395 7.44694 8.12251C7.16333 8.2267 6.83483 8.29366 6.35743 8.31431C5.92966 8.33527 5.75883 8.33934 4.85839 8.33934H4.14263C3.24219 8.33934 3.07574 8.33527 2.64358 8.31431C2.25025 8.30711 1.87718 8.23734 1.53146 8.11532L1.55408 8.1222C1.24245 8.01176 0.976742 7.84875 0.757625 7.64257L0.757287 7.64225C0.532431 7.43826 0.354841 7.19046 0.24005 6.91357L0.234985 6.89949C0.111078 6.60038 0.035788 6.25435 0.0280226 5.89298V5.88985C0.0101287 5.56383 0 5.18181 0 4.79792C0 4.72721 0.000337549 4.6565 0.00101279 4.5861V4.59674V3.74166C0.00101279 2.99076 0.0101287 2.83213 0.0280226 2.44855C0.0506433 2.00646 0.126946 1.70172 0.234985 1.43891C0.35214 1.16358 0.505083 0.929861 0.757287 0.700524C0.975053 0.491837 1.24144 0.328205 1.53956 0.225269L1.55408 0.220889C1.87651 0.104813 2.24958 0.0334775 2.63953 0.0250299H2.64358C3.05785 0.00844757 3.22868 0 4.03898 0H4.96204ZM4.97115 0.750897H4.0302C3.2513 0.750897 3.08486 0.759344 2.67971 0.775927C2.24316 0.792509 2.00446 0.859464 1.84679 0.917659C1.63511 0.992748 1.48655 1.08442 1.32922 1.23053C1.17189 1.37664 1.07263 1.51431 0.991597 1.71017C0.933188 1.85628 0.856548 2.07717 0.838654 2.48609C0.82076 2.86154 0.811644 3.01172 0.811644 3.73759V4.60519C0.811644 5.33105 0.82076 5.48123 0.838654 5.85668C0.856548 6.26123 0.928799 6.48243 0.991597 6.62854C1.07263 6.82471 1.17155 6.96238 1.32922 7.10818C1.48689 7.25398 1.63544 7.34596 1.84679 7.42105C2.00446 7.47956 2.24283 7.5462 2.6841 7.56278C3.12064 7.58375 3.27831 7.58781 4.25067 7.58781H4.75035C5.72709 7.58781 5.88037 7.58375 6.3213 7.56278C6.75785 7.5462 6.99655 7.47925 7.15422 7.42105C7.36591 7.34596 7.51446 7.25429 7.67179 7.10818C7.82913 6.96207 7.92839 6.8244 8.00942 6.62854C8.07255 6.48243 8.14447 6.26154 8.16236 5.85668C8.18498 5.44776 8.18937 5.30603 8.18937 4.40088V3.9419C8.18937 3.03675 8.18498 2.89064 8.16236 2.48171C8.14447 2.07717 8.07221 1.85597 8.00942 1.70985C7.93311 1.52182 7.81798 1.36131 7.67213 1.23053L7.67179 1.23022C7.52999 1.09475 7.35713 0.988055 7.16367 0.920161L7.15422 0.917346C6.90708 0.830993 6.62145 0.779368 6.32299 0.775614H6.3213C5.97423 0.759344 5.56807 0.749958 5.15921 0.749958C5.09303 0.749958 5.02686 0.750271 4.96069 0.750584H4.97081L4.97115 0.750897ZM4.50287 2.02742C5.77942 2.02742 6.81457 2.98638 6.81457 4.16967C6.81457 5.35296 5.77976 6.31191 4.50287 6.31191C3.22632 6.31191 2.19117 5.35296 2.19117 4.16967C2.19117 2.98638 3.22598 2.02742 4.50287 2.02742ZM4.50287 2.77832C3.67367 2.77832 3.00146 3.40125 3.00146 4.16967C3.00146 4.93809 3.67367 5.56102 4.50287 5.56102C5.33207 5.56102 6.00428 4.93809 6.00428 4.16967C6.00428 3.40125 5.33207 2.77832 4.50287 2.77832ZM6.90235 1.44329C7.20081 1.44329 7.44255 1.6673 7.44255 1.94388C7.44255 2.22046 7.20081 2.44448 6.90235 2.44448C6.60389 2.44448 6.36216 2.22046 6.36216 1.94388C6.36216 1.6673 6.60389 1.44329 6.90235 1.44329Z" fill="white"/>
</svg>
