<svg width="23" height="24" viewBox="0 0 23 24" fill="none" xmlns="http://www.w3.org/2000/svg">
<path d="M12.6808 0C14.7515 0 15.189 0.0243115 16.2468 0.0720342C17.4659 0.132363 18.3063 0.33586 19.0311 0.636602C19.7903 0.936445 20.4349 1.35694 21.0673 2.01696C21.7118 2.67697 22.1027 3.34959 22.4021 4.14197C22.6894 4.89833 22.874 5.77444 22.931 7.05935C22.9888 8.2002 23 8.64411 23 11.0455V12.9662C23 15.3676 22.9888 15.8115 22.931 16.9524C22.9111 18.0014 22.7187 18.9963 22.3822 19.9184L22.4012 19.858C22.1018 20.6504 21.711 21.323 21.0785 21.983C20.434 22.6557 19.7903 23.0636 19.0311 23.376C18.3063 23.6758 17.4668 23.8685 16.2468 23.928C15.1536 23.9883 14.717 24 12.4159 24H10.5867C8.28559 24 7.86022 23.9883 6.75582 23.928C5.75065 23.9073 4.79724 23.7065 3.91372 23.3553L3.97153 23.3751C3.17515 23.0573 2.49612 22.5881 1.93615 21.9947L1.93529 21.9938C1.36066 21.4068 0.906816 20.6936 0.61346 19.8968L0.600518 19.8562C0.283865 18.9954 0.0914581 17.9995 0.0716134 16.9596V16.9506C0.0258843 16.0123 0 14.9129 0 13.8081C0 13.6046 0.000862625 13.4011 0.00258825 13.1985V13.2291V10.7682C0.00258825 8.60719 0.0258843 8.15067 0.0716134 7.04675C0.129422 5.77444 0.324417 4.89743 0.600518 4.14107C0.899914 3.34869 1.29077 2.67607 1.93529 2.01606C2.4918 1.41547 3.17256 0.944549 3.93443 0.648308L3.97153 0.635702C4.79551 0.301643 5.74892 0.0963457 6.74547 0.0720342H6.75582C7.8145 0.0243115 8.25108 0 10.3218 0H12.6808ZM12.7041 2.16103H10.2994C8.30889 2.16103 7.88352 2.18534 6.84815 2.23306C5.73253 2.28078 5.12252 2.47347 4.71959 2.64095C4.1786 2.85706 3.79896 3.12088 3.39689 3.54138C2.99482 3.96188 2.74116 4.35807 2.53408 4.92174C2.38481 5.34224 2.18896 5.97794 2.14323 7.1548C2.0975 8.23531 2.0742 8.66752 2.0742 10.7565V13.2534C2.0742 15.3424 2.0975 15.7746 2.14323 16.8551C2.18896 18.0194 2.3736 18.656 2.53408 19.0765C2.74116 19.641 2.99396 20.0372 3.39689 20.4568C3.79983 20.8764 4.17947 21.1411 4.71959 21.3572C5.12252 21.5256 5.73167 21.7174 6.85936 21.7651C7.97498 21.8255 8.37791 21.8372 10.8628 21.8372H12.1398C14.6359 21.8372 15.0276 21.8255 16.1544 21.7651C17.2701 21.7174 17.8801 21.5247 18.283 21.3572C18.824 21.1411 19.2036 20.8773 19.6057 20.4568C20.0078 20.0363 20.2614 19.6401 20.4685 19.0765C20.6299 18.656 20.8136 18.0203 20.8594 16.8551C20.9172 15.6782 20.9284 15.2704 20.9284 12.6654V11.3445C20.9284 8.73955 20.9172 8.31905 20.8594 7.14219C20.8136 5.97794 20.629 5.34134 20.4685 4.92084C20.2735 4.37968 19.9793 3.91776 19.6066 3.54138L19.6057 3.54048C19.2433 3.1506 18.8016 2.84355 18.3072 2.64816L18.283 2.64005C17.6514 2.39154 16.9215 2.24297 16.1588 2.23216H16.1544C15.2675 2.18534 14.2295 2.15833 13.1846 2.15833C13.0155 2.15833 12.8464 2.15923 12.6773 2.16013H12.7032L12.7041 2.16103ZM11.5073 5.83477C14.7696 5.83477 17.415 8.59458 17.415 12C17.415 15.4054 14.7705 18.1652 11.5073 18.1652C8.24504 18.1652 5.59965 15.4054 5.59965 12C5.59965 8.59458 8.24418 5.83477 11.5073 5.83477ZM11.5073 7.9958C9.38827 7.9958 7.67041 9.78855 7.67041 12C7.67041 14.2115 9.38827 16.0042 11.5073 16.0042C13.6264 16.0042 15.3443 14.2115 15.3443 12C15.3443 9.78855 13.6264 7.9958 11.5073 7.9958ZM17.6393 4.15367C18.4021 4.15367 19.0198 4.79838 19.0198 5.59436C19.0198 6.39034 18.4021 7.03504 17.6393 7.03504C16.8766 7.03504 16.2588 6.39034 16.2588 5.59436C16.2588 4.79838 16.8766 4.15367 17.6393 4.15367Z" fill="white"/>
</svg>
